<?xml version="1.0" standalone="no"?>
<!DOCTYPE svg PUBLIC "-//W3C//DTD SVG 20010904//EN"
 "http://www.w3.org/TR/2001/REC-SVG-20010904/DTD/svg10.dtd">
<svg version="1.0" xmlns="http://www.w3.org/2000/svg"
 width="363.000000pt" height="83.000000pt" viewBox="0 0 363.000000 83.000000"
 preserveAspectRatio="xMidYMid meet">

<g transform="translate(0.000000,83.000000) scale(0.100000,-0.100000)"
fill="#000000" stroke="none">
<path d="M2003 788 c-48 -21 -52 -28 -23 -46 19 -12 20 -23 20 -241 0 -227 0
-229 -22 -234 -39 -10 -10 -20 57 -20 68 0 82 8 43 27 -18 9 -24 21 -26 54 -3
39 10 72 27 72 11 0 81 -99 81 -115 0 -8 -7 -15 -15 -15 -8 0 -15 -6 -15 -13
0 -9 21 -13 79 -12 44 0 83 4 87 7 3 4 -9 15 -29 24 -33 16 -147 141 -147 161
0 19 79 85 116 98 67 23 54 36 -33 33 -82 -3 -80 -1 -66 -50 5 -18 -55 -88
-76 -88 -7 0 -11 62 -13 188 l-3 188 -42 -18z"/>
<path d="M2979 787 c-54 -28 -99 -106 -99 -174 0 -40 -2 -44 -30 -49 -16 -4
-30 -13 -30 -20 0 -9 11 -14 30 -14 l30 0 0 -99 c0 -126 -7 -161 -31 -161 -11
0 -19 -6 -19 -13 0 -9 23 -12 80 -13 58 0 80 3 80 12 0 7 -12 14 -27 16 l-28
3 -3 128 -3 127 51 0 c44 0 51 3 48 18 -2 13 -15 18 -52 20 l-49 3 6 58 c6 67
28 117 57 126 11 3 35 1 54 -6 28 -10 38 -10 50 0 20 17 20 26 0 45 -22 22
-63 20 -115 -7z"/>
<path d="M103 760 c-41 -24 -63 -67 -63 -121 0 -58 44 -100 135 -128 113 -35
144 -62 145 -124 1 -109 -130 -151 -206 -66 -12 13 -25 45 -28 72 -10 69 -32
62 -42 -15 -12 -85 -11 -93 4 -90 7 1 32 -9 55 -22 41 -24 79 -31 146 -28 26
2 44 12 77 46 55 58 66 112 36 180 -23 51 -59 78 -130 96 -77 20 -102 31 -122
58 -64 81 47 166 128 97 16 -13 35 -38 42 -55 7 -16 19 -30 26 -30 11 0 14 18
14 75 0 41 -3 75 -7 75 -3 0 -14 -7 -23 -15 -15 -14 -20 -14 -46 0 -40 21
-103 19 -141 -5z"/>
<path d="M2567 759 c-39 -22 -4 -79 35 -58 10 5 18 18 18 29 0 25 -30 41 -53
29z"/>
<path d="M650 641 c0 -4 -18 -28 -40 -53 -40 -46 -42 -58 -8 -58 17 0 18 -7
12 -92 -8 -110 5 -171 41 -194 32 -21 66 -12 112 30 46 42 41 67 -7 31 -73
-54 -90 -33 -90 112 l0 113 55 0 c30 0 55 5 55 10 0 6 1 13 3 18 1 4 -23 9
-53 12 l-55 5 -3 38 c-2 20 -7 37 -13 37 -5 0 -9 -4 -9 -9z"/>
<path d="M2528 564 c-27 -13 -48 -26 -48 -29 0 -2 14 -11 30 -20 l30 -16 0
-110 0 -109 -30 -6 c-16 -4 -30 -12 -30 -18 0 -7 27 -11 80 -11 55 0 80 3 80
12 0 6 -10 13 -22 15 -23 3 -23 6 -26 161 -1 86 -6 157 -10 157 -4 -1 -28 -12
-54 -26z"/>
<path d="M1069 557 c-99 -67 -104 -229 -9 -297 107 -76 260 9 260 145 0 54
-37 124 -79 152 -47 32 -125 32 -172 0z m123 -18 c31 -14 68 -68 75 -112 12
-77 -42 -157 -106 -157 -69 0 -111 53 -111 140 0 101 68 163 142 129z"/>
<path d="M1600 558 c-83 -42 -114 -153 -69 -245 23 -47 77 -83 124 -83 34 0
84 22 113 49 41 40 21 57 -25 21 -31 -24 -73 -26 -114 -5 -83 43 -94 174 -19
232 24 19 58 15 97 -11 38 -26 63 -25 63 4 0 53 -98 75 -170 38z"/>
<path d="M3200 555 c0 -8 7 -15 16 -15 16 0 144 -253 144 -286 0 -23 -50 -88
-88 -115 -22 -15 -32 -29 -30 -43 5 -32 35 -31 66 2 34 36 116 198 171 337 28
69 46 101 60 107 42 15 20 28 -49 28 -56 0 -70 -3 -70 -15 0 -9 10 -15 26 -15
24 0 25 -2 19 -32 -9 -40 -55 -159 -66 -172 -5 -6 -26 27 -48 75 -54 117 -57
129 -32 129 12 0 21 7 21 15 0 12 -14 15 -70 15 -56 0 -70 -3 -70 -15z"/>
</g>
</svg>
